<svg xmlns="http://www.w3.org/2000/svg" width="410" height="118" viewBox="0 0 342 99" fill="none">
<g id="Logo">
<g id="text">
<path id="Vector" d="M131 75.19V56.066H140.1V75.19H141.539V43.52H139.989V54.3193H130.992V43.5027H129.571V75.19H131Z" fill="#3F4448"/>
<path id="Vector_2" d="M239.021 43.448C242.205 43.448 245.202 43.448 248.291 43.448C248.317 43.8768 248.34 44.2307 248.371 44.7372C245.759 44.7372 243.244 44.7372 240.589 44.7372C240.589 47.9111 240.589 50.9411 240.589 54.138C242.69 54.138 244.725 54.138 246.881 54.138C246.939 54.6819 246.979 55.0704 247.036 55.62C244.86 55.62 242.822 55.62 240.617 55.62C240.617 61.7462 240.617 67.7257 240.617 73.8922C243.187 73.8922 245.696 73.8922 248.291 73.8922C248.291 74.4217 248.291 74.7699 248.291 75.2073C245.199 75.2073 242.168 75.2073 239.024 75.2073C239.021 64.6209 239.021 54.1093 239.021 43.448Z" fill="#3F4448"/>
<path id="Vector_3" d="M224.366 43.4797C227.487 43.4797 230.521 43.4797 233.65 43.4797C233.65 43.894 233.65 44.2451 233.65 44.7515C231.095 44.7515 228.575 44.7515 225.925 44.7515C225.925 47.9312 225.925 50.9613 225.925 54.1524C228.035 54.1524 230.073 54.1524 232.235 54.1524C232.286 54.6877 232.324 55.079 232.378 55.6603C230.159 55.6603 228.081 55.6603 225.896 55.6603C225.896 61.7606 225.896 67.6854 225.896 73.8405C228.445 73.8405 230.992 73.8405 233.63 73.8405C233.656 74.4131 233.67 74.7584 233.69 75.2073C230.55 75.2073 227.515 75.2073 224.363 75.2073C224.366 64.6209 224.366 54.1064 224.366 43.4797Z" fill="#3F4448"/>
<path id="Vector_4" d="M161.353 43.4624C164.505 43.4624 167.499 43.4624 170.551 43.4624C170.551 43.9142 170.551 44.271 170.551 44.7544C168.004 44.7544 165.535 44.7544 162.937 44.7544C162.937 47.9053 162.937 50.9325 162.937 54.1352C165.019 54.1352 167.051 54.1352 169.219 54.1352C169.273 54.679 169.31 55.0646 169.365 55.6113C167.175 55.6113 165.139 55.6113 162.955 55.6113C162.955 61.7088 162.955 67.6653 162.955 73.8289C165.415 73.8289 167.912 73.8289 170.496 73.8289C170.548 74.3757 170.579 74.7267 170.625 75.1958C167.499 75.1958 164.476 75.1958 161.356 75.1958C161.353 64.6209 161.353 54.1035 161.353 43.4624Z" fill="#3F4448"/>
<path id="Vector_5" d="M176.005 43.471C179.042 43.471 182.034 43.471 185.177 43.471C185.2 43.8653 185.223 44.2451 185.255 44.7602C182.642 44.7602 180.173 44.7602 177.581 44.7602C177.581 47.914 177.581 50.9411 177.581 54.1409C179.674 54.1409 181.709 54.1409 183.88 54.1409C183.931 54.6819 183.966 55.0646 184.023 55.6574C181.793 55.6574 179.717 55.6574 177.552 55.6574C177.552 61.7721 177.552 67.6941 177.552 73.8261C180.056 73.8261 182.556 73.8261 185.14 73.8261C185.194 74.3728 185.229 74.7239 185.275 75.1929C182.146 75.1929 179.12 75.1929 176.005 75.1929C176.005 64.618 176.005 54.0977 176.005 43.471Z" fill="#3F4448"/>
<path id="Vector_6" d="M118.63 75.19H120.275V44.7803H125.396V43.4624H113.509V44.8551H118.63V75.19Z" fill="#3F4448"/>
<path id="Vector_7" d="M200.679 75.19H202.201V44.7775H207.463C207.382 44.1991 207.331 43.8106 207.285 43.4797H195.521V44.858H200.676V75.19H200.679Z" fill="#3F4448"/>
<path id="Vector_8" d="M149.611 44.8206C152.646 44.9271 154.018 45.9515 154.34 48.6247C154.753 52.0691 154.205 55.2747 151.584 57.8011C150.923 58.4371 150.306 59.1277 149.709 59.8269C148.345 61.4297 148.004 63.2713 148.991 65.1359C150.794 68.5429 152.703 71.8866 154.546 75.19H156.338C154.753 72.3902 153.257 69.74 151.762 67.0984C149.313 62.7735 149.284 62.4541 152.649 58.8917C155.35 56.0314 156.289 52.659 155.941 48.8031C155.686 45.9946 154.477 44.1358 152.186 43.6984C150.254 43.3301 148.239 43.4135 146.189 43.2955V44.8177C147.427 44.8149 148.521 44.7803 149.611 44.8206Z" fill="#3F4448"/>
<path id="Vector_9" d="M217.261 47.9226C217.993 51.6519 217.387 55.0272 214.648 57.804C214.002 58.4572 213.365 59.1219 212.774 59.8269C211.425 61.4326 211.077 63.2655 212.07 65.1388C213.853 68.5026 215.736 71.8175 217.611 75.19H219.374C217.864 72.488 216.354 69.7889 214.835 67.0898C212.337 62.6526 212.291 62.5318 215.702 58.8946C218.711 55.6861 219.615 51.9367 218.814 47.6722C218.432 45.6407 217.344 44.0523 215.286 43.6984C213.345 43.3646 211.341 43.4106 209.3 43.2869V44.6796C211.04 44.8091 212.653 44.8724 214.255 45.0623C215.94 45.2637 216.925 46.2133 217.261 47.9226Z" fill="#3F4448"/>
<path id="Vector_10" d="M289.954 75.19C289.635 64.7734 291.929 54.7884 294.312 44.7055C294.912 45.1515 295.948 48.9671 296.227 50.3512C297.837 58.3507 299.365 66.3589 299.043 74.5972C299.034 74.7929 299.052 74.9886 299.075 75.19H300.533C300.961 64.2007 298.529 53.8014 296.155 43.3387H292.902C290.485 53.856 288.146 64.3015 288.43 75.19H289.954Z" fill="#3F4448"/>
<path id="Vector_11" d="M321.926 73.8088C324.581 73.8088 327.004 73.8088 329.559 73.8088C329.608 74.3181 329.642 74.7008 329.688 75.19C326.522 75.19 323.496 75.19 320.356 75.19C320.356 64.6122 320.356 54.1179 320.356 43.4883C323.416 43.4883 326.393 43.4883 329.536 43.4883C329.591 43.8192 329.654 44.2048 329.752 44.8005C327.105 44.8005 324.604 44.8005 321.949 44.8005C321.949 48.0003 321.949 51.013 321.949 54.1898C324.076 54.1898 326.106 54.1898 328.233 54.1898C328.233 54.7423 328.233 55.1279 328.233 55.7121C326.111 55.7121 324.085 55.7121 321.929 55.7121C321.926 61.7951 321.926 67.6854 321.926 73.8088Z" fill="#3F4448"/>
<path id="Vector_12" d="M275.732 73.8059C279.143 73.8059 282.229 73.8059 285.453 73.8059C285.502 74.321 285.536 74.7008 285.582 75.19C281.787 75.19 278.135 75.19 274.323 75.19C274.323 64.6612 274.323 54.1438 274.323 43.4797C274.728 43.4567 275.115 43.4365 275.735 43.402C275.732 53.551 275.732 63.5591 275.732 73.8059Z" fill="#3F4448"/>
<path id="Vector_13" d="M315.171 73.7369C313.988 73.7397 312.866 73.7858 311.752 73.7253C309.673 73.6102 308.238 72.5139 307.655 70.5284C307.362 69.5299 307.141 68.471 307.13 67.438C307.078 62.034 307.05 56.63 307.124 51.226C307.19 46.5673 308.993 44.8695 313.618 44.8523C313.982 44.8494 314.746 44.8408 315.168 44.8436V43.3617C314.261 43.3588 313.526 43.3358 312.794 43.3675C308.267 43.5603 306.183 45.2753 305.792 49.816C305.448 53.8042 305.562 57.8385 305.562 61.8527C305.562 64.4309 305.585 67.0207 305.852 69.5817C306.208 72.9887 308.344 74.9713 311.646 75.2332C312.737 75.3195 313.839 75.2504 314.933 75.236C315.004 75.236 315.079 75.1958 315.165 75.1468V73.7369H315.171Z" fill="#3F4448"/>
<path id="Vector_14" d="M264.195 44.9041C266.049 44.9703 267.183 45.5947 267.499 47.1198C268.311 51.0706 268.369 54.9207 265.243 58.0486C264.321 58.9723 263.428 59.9276 262.507 60.8484C261.023 62.3361 260.359 64.1605 260.359 66.2611C260.357 69.0033 260.388 74.9512 260.411 75.1871H261.91C261.933 72.8995 262.045 70.7327 261.867 68.5919C261.577 65.0755 262.65 62.3073 265.332 60.0859C269.262 56.8285 269.988 52.4374 269.247 47.6147C268.992 45.9544 268.337 44.4782 266.626 43.8969C264.413 43.143 262.148 43.2955 259.785 43.4595C259.811 43.989 259.831 44.3516 259.848 44.6681C260.021 44.7544 262.86 44.8552 264.195 44.9041Z" fill="#3F4448"/>
</g>
<g id="tree3">
<path id="Vector_15" d="M30.0711 28.8053L29.933 28.4004L29.788 28.8029L13.1261 75.0528L13.0537 75.2537H13.2672H25.0825V78.8738V79.0238H25.2325H34.6276H34.7776V78.8738V75.2537H45.6982H45.9079L45.8402 75.0553L30.0711 28.8053Z" fill="#3F4448" stroke="white" stroke-width="0.3"/>
</g>
<g id="tree2">
<path id="Vector_16" d="M85.8819 43.3767L85.7408 42.985L85.5996 43.3767L78.103 64.1816L78.1026 64.1828L74.3024 75.0163L74.2324 75.2159H74.444H82.3785V77.6442V77.7942H82.5285H88.955H89.105V77.6442V75.2159H97.1393H97.3528L97.2805 75.0151L85.8819 43.3767Z" fill="#3F4448" stroke="white" stroke-width="0.3"/>
</g>
<g id="tree1">
<path id="Vector_17" d="M58.8698 11.77L58.7287 11.3784L58.5876 11.77L41.1192 60.2486L35.7865 75.0469L35.7141 75.2477H35.9276H46.593H52.1502V80.2562V80.4062H52.3002H65.1572H65.3072V80.2562V75.2477H81.5278H81.744L81.6683 75.0452L81.657 75.0151L81.6564 75.0134L78.0702 65.0576L58.8698 11.77Z" fill="#3F4448" stroke="white" stroke-width="0.3"/>
</g>
</g>
</svg>