
<svg width="529" height="428" viewBox="0 0 529 428" fill="none" xmlns="http://www.w3.org/2000/svg">
<path d="M105.104 106.978L104.966 106.574L104.821 106.976L0.858917 394.875L0.786354 395.076H1H75.5079V418.394V418.544H75.6579H134.279H134.429V418.394V395.076H203.354H203.564L203.496 394.877L105.104 106.978Z" fill="#3F4448" fill-opacity="0.1" stroke="white" stroke-width="0.3"/>
<path d="M456.628 193.949L456.487 193.558L456.346 193.949L409.57 323.457L409.57 323.458L385.858 390.895L385.788 391.094H386H436.294V406.994V407.144H436.444H476.542H476.692V406.994V391.094H527.608H527.822L527.749 390.894L456.628 193.949Z" fill="#3F4448" fill-opacity="0.1" stroke="white" stroke-width="0.3"/>
<path d="M284.799 0.949046L284.658 0.55843L284.517 0.949045L175.522 302.721L142.249 394.838L142.176 395.039H142.39H208.937H244.397V427V427.15H244.547H324.769H324.919V427V395.039H426.913H427.13L427.054 394.836L426.98 394.64L426.98 394.639L404.6 332.656L284.799 0.949046Z" fill="#3F4448" fill-opacity="0.1" stroke="white" stroke-width="0.3"/>
</svg>
