
<svg width="121" height="44" viewBox="0 0 121 44" fill="none" xmlns="http://www.w3.org/2000/svg">
<path d="M39.5901 7.8577C39.5901 9.07966 39.1896 10.064 38.3885 10.8108C37.5874 11.5575 36.3858 11.9309 34.7837 11.9309H31.9121V18H30.4865V3.76412H34.7837C36.3723 3.76412 37.5671 4.1375 38.3681 4.88425C39.1828 5.63101 39.5901 6.62216 39.5901 7.8577ZM34.7837 10.7089C37.0104 10.7089 38.1237 9.75853 38.1237 7.8577C38.1237 6.90728 37.859 6.18768 37.3295 5.69889C36.7999 5.21011 35.9514 4.96572 34.7837 4.96572H31.9121V10.7089H34.7837ZM43.4078 8.85563C43.7201 8.16319 44.1953 7.62688 44.8334 7.24672C45.4851 6.86655 46.2794 6.67647 47.2162 6.67647V8.16319H46.8293C45.7974 8.16319 44.9692 8.44153 44.3446 8.9982C43.7201 9.55487 43.4078 10.4849 43.4078 11.7883V18H41.9822V6.88013H43.4078V8.85563ZM54.2284 18.1629C53.1829 18.1629 52.2393 17.9321 51.3975 17.4705C50.5693 16.9953 49.9108 16.33 49.422 15.4746C48.9468 14.6057 48.7092 13.5941 48.7092 12.4401C48.7092 11.286 48.9536 10.2813 49.4423 9.42588C49.9311 8.55693 50.5964 7.89164 51.4382 7.43001C52.28 6.9548 53.2236 6.7172 54.2691 6.7172C55.3146 6.7172 56.2582 6.9548 57.1 7.43001C57.9554 7.89164 58.6206 8.55693 59.0959 9.42588C59.5846 10.2813 59.829 11.286 59.829 12.4401C59.829 13.5806 59.5846 14.5853 59.0959 15.4542C58.6071 16.3232 57.935 16.9953 57.0796 17.4705C56.2242 17.9321 55.2738 18.1629 54.2284 18.1629ZM54.2284 16.9206C54.9615 16.9206 55.6404 16.7577 56.265 16.4318C56.8895 16.0924 57.3919 15.59 57.7721 14.9247C58.1658 14.2459 58.3627 13.4176 58.3627 12.4401C58.3627 11.4625 58.1726 10.6411 57.7924 9.97577C57.4123 9.2969 56.9099 8.79454 56.2853 8.46868C55.6608 8.12925 54.9819 7.95953 54.2487 7.95953C53.5156 7.95953 52.8367 8.12925 52.2121 8.46868C51.5876 8.79454 51.0852 9.2969 50.705 9.97577C50.3384 10.6411 50.1552 11.4625 50.1552 12.4401C50.1552 13.4176 50.3384 14.2459 50.705 14.9247C51.0852 15.59 51.5808 16.0924 52.1918 16.4318C52.8163 16.7577 53.4952 16.9206 54.2284 16.9206ZM63.833 9.32405C64.186 8.5773 64.7427 7.95953 65.5031 7.47074C66.277 6.96838 67.1934 6.7172 68.2525 6.7172C69.2572 6.7172 70.1601 6.9548 70.9612 7.43001C71.7758 7.89164 72.4071 8.55693 72.8552 9.42588C73.3168 10.2813 73.5476 11.2792 73.5476 12.4197C73.5476 13.5602 73.3168 14.5649 72.8552 15.4339C72.4071 16.3028 71.7758 16.9749 70.9612 17.4501C70.1601 17.9253 69.2572 18.1629 68.2525 18.1629C67.207 18.1629 66.2973 17.9185 65.5234 17.4298C64.7495 16.9274 64.186 16.3028 63.833 15.5561V23.2544H62.4278V6.88013H63.833V9.32405ZM72.1017 12.4197C72.1017 11.4964 71.9184 10.7022 71.5518 10.0369C71.1988 9.358 70.71 8.84206 70.0854 8.48905C69.4609 8.13603 68.7548 7.95953 67.9673 7.95953C67.207 7.95953 66.5078 8.14282 65.8696 8.50941C65.2451 8.876 64.7495 9.39873 64.3829 10.0776C64.0163 10.7565 63.833 11.544 63.833 12.4401C63.833 13.3362 64.0163 14.1237 64.3829 14.8025C64.7495 15.4814 65.2451 16.0041 65.8696 16.3707C66.5078 16.7373 67.207 16.9206 67.9673 16.9206C68.7548 16.9206 69.4609 16.7441 70.0854 16.3911C70.71 16.0245 71.1988 15.5018 71.5518 14.8229C71.9184 14.1304 72.1017 13.3294 72.1017 12.4197ZM86.2317 11.8698C86.2317 12.3586 86.2182 12.732 86.191 12.9899H76.9652C77.0059 13.8317 77.2096 14.5513 77.5762 15.1488C77.9427 15.7462 78.4247 16.201 79.0221 16.5133C79.6196 16.812 80.2713 16.9613 80.9773 16.9613C81.9006 16.9613 82.6745 16.7373 83.299 16.2893C83.9372 15.8412 84.3581 15.237 84.5617 14.4767H86.0688C85.7973 15.5629 85.2134 16.4522 84.3173 17.1446C83.4348 17.8235 82.3214 18.1629 80.9773 18.1629C79.9318 18.1629 78.995 17.9321 78.1668 17.4705C77.3386 16.9953 76.6868 16.33 76.2116 15.4746C75.75 14.6057 75.5192 13.5941 75.5192 12.4401C75.5192 11.286 75.75 10.2745 76.2116 9.40552C76.6733 8.53657 77.3182 7.87127 78.1464 7.40964C78.9746 6.94801 79.9183 6.7172 80.9773 6.7172C82.0363 6.7172 82.9596 6.94801 83.7471 7.40964C84.5481 7.87127 85.1591 8.49583 85.58 9.28332C86.0145 10.0572 86.2317 10.9194 86.2317 11.8698ZM84.7857 11.8291C84.7993 11.0009 84.6296 10.2948 84.2766 9.71101C83.9372 9.12718 83.4687 8.68592 82.8713 8.38722C82.2739 8.08851 81.6222 7.93916 80.9162 7.93916C79.8572 7.93916 78.9543 8.2786 78.2075 8.95747C77.4607 9.63633 77.0466 10.5935 76.9652 11.8291H84.7857ZM90.2656 8.85563C90.5779 8.16319 91.0531 7.62688 91.6913 7.24672C92.343 6.86655 93.1373 6.67647 94.0741 6.67647V8.16319H93.6871C92.6553 8.16319 91.827 8.44153 91.2025 8.9982C90.5779 9.55487 90.2656 10.4849 90.2656 11.7883V18H88.84V6.88013H90.2656V8.85563ZM98.0721 8.08172V14.9858C98.0721 15.6647 98.201 16.1331 98.459 16.3911C98.717 16.6491 99.1718 16.778 99.8235 16.778H101.127V18H99.5995C98.5948 18 97.848 17.7692 97.3592 17.3076C96.8705 16.8323 96.6261 16.0584 96.6261 14.9858V8.08172H95.0782V6.88013H96.6261V4.08998H98.0721V6.88013H101.127V8.08172H98.0721ZM112.643 6.88013L106.044 23.2341H104.558L106.716 17.9389L102.154 6.88013H103.723L107.511 16.3707L111.177 6.88013H112.643Z" fill="white"/>
<path d="M37.4096 41.1174L34.1511 35.4557H32.3792V41.1174H30.0575V26.963H34.9453C36.0315 26.963 36.948 27.1531 37.6948 27.5333C38.4551 27.9134 39.0186 28.4226 39.3851 29.0607C39.7653 29.6989 39.9554 30.4117 39.9554 31.1992C39.9554 32.1224 39.6838 32.9642 39.1408 33.7245C38.6112 34.4713 37.7898 34.9805 36.6765 35.252L40.1794 41.1174H37.4096ZM32.3792 33.6024H34.9453C35.8143 33.6024 36.466 33.3851 36.9005 32.9506C37.3485 32.5162 37.5726 31.9323 37.5726 31.1992C37.5726 30.466 37.3553 29.8957 36.9208 29.4884C36.4864 29.0675 35.8279 28.8571 34.9453 28.8571H32.3792V33.6024ZM54.4323 35.2316C54.4323 35.6525 54.4052 36.0327 54.3509 36.3721H45.7767C45.8446 37.2682 46.1773 37.9878 46.7747 38.5309C47.3721 39.074 48.1053 39.3456 48.9742 39.3456C50.2233 39.3456 51.1059 38.8229 51.6218 37.7774H54.1268C53.7874 38.8093 53.1696 39.6579 52.2735 40.3232C51.391 40.9749 50.2912 41.3007 48.9742 41.3007C47.9016 41.3007 46.9376 41.0631 46.0822 40.5879C45.2404 40.0991 44.5751 39.4203 44.0864 38.5513C43.6112 37.6688 43.3736 36.6505 43.3736 35.4964C43.3736 34.3423 43.6044 33.3308 44.066 32.4619C44.5412 31.5793 45.1997 30.9005 46.0415 30.4252C46.8969 29.95 47.8745 29.7124 48.9742 29.7124C50.0333 29.7124 50.9769 29.9432 51.8051 30.4049C52.6333 30.8665 53.2782 31.5182 53.7399 32.36C54.2015 33.1882 54.4323 34.1454 54.4323 35.2316ZM52.0088 34.4985C51.9952 33.6431 51.6897 32.9574 51.0923 32.4415C50.4949 31.9255 49.7549 31.6676 48.8724 31.6676C48.0713 31.6676 47.3857 31.9255 46.8154 32.4415C46.2452 32.9438 45.9057 33.6295 45.7971 34.4985H52.0088ZM57.1652 35.4557C57.1652 34.3287 57.396 33.3308 57.8576 32.4619C58.3329 31.5929 58.971 30.9208 59.7721 30.4456C60.5867 29.9568 61.4896 29.7124 62.4807 29.7124C63.2139 29.7124 63.9335 29.8754 64.6395 30.2012C65.3591 30.5135 65.9294 30.9344 66.3503 31.4639V26.0465H68.6924V41.1174H66.3503V39.427C65.9701 39.9701 65.4406 40.4182 64.7617 40.7712C64.0965 41.1242 63.3293 41.3007 62.4604 41.3007C61.4828 41.3007 60.5867 41.0563 59.7721 40.5675C58.971 40.0652 58.3329 39.3727 57.8576 38.4902C57.396 37.5941 57.1652 36.5826 57.1652 35.4557ZM66.3503 35.4964C66.3503 34.7225 66.1874 34.0504 65.8615 33.4802C65.5492 32.9099 65.1351 32.4754 64.6192 32.1767C64.1032 31.878 63.5466 31.7287 62.9492 31.7287C62.3518 31.7287 61.7951 31.878 61.2791 32.1767C60.7632 32.4619 60.3423 32.8895 60.0164 33.4598C59.7042 34.0165 59.548 34.6818 59.548 35.4557C59.548 36.2296 59.7042 36.9084 60.0164 37.4923C60.3423 38.0761 60.7632 38.5242 61.2791 38.8364C61.8087 39.1351 62.3653 39.2845 62.9492 39.2845C63.5466 39.2845 64.1032 39.1351 64.6192 38.8364C65.1351 38.5377 65.5492 38.1033 65.8615 37.533C66.1874 36.9492 66.3503 36.2703 66.3503 35.4964ZM75.2856 31.525C75.625 30.9548 76.0731 30.5135 76.6297 30.2012C77.2 29.8754 77.8721 29.7124 78.646 29.7124V32.1156H78.0554C77.1457 32.1156 76.4532 32.3464 75.978 32.8081C75.5164 33.2697 75.2856 34.0708 75.2856 35.2113V41.1174H72.9639V29.8957H75.2856V31.525ZM92.287 35.2316C92.287 35.6525 92.2598 36.0327 92.2055 36.3721H83.6314C83.6993 37.2682 84.0319 37.9878 84.6293 38.5309C85.2267 39.074 85.9599 39.3456 86.8289 39.3456C88.078 39.3456 88.9605 38.8229 89.4764 37.7774H91.9815C91.642 38.8093 91.0243 39.6579 90.1282 40.3232C89.2456 40.9749 88.1459 41.3007 86.8289 41.3007C85.7562 41.3007 84.7922 41.0631 83.9369 40.5879C83.0951 40.0991 82.4298 39.4203 81.941 38.5513C81.4658 37.6688 81.2282 36.6505 81.2282 35.4964C81.2282 34.3423 81.459 33.3308 81.9206 32.4619C82.3958 31.5793 83.0543 30.9005 83.8961 30.4252C84.7515 29.95 85.7291 29.7124 86.8289 29.7124C87.8879 29.7124 88.8315 29.9432 89.6597 30.4049C90.488 30.8665 91.1329 31.5182 91.5945 32.36C92.0561 33.1882 92.287 34.1454 92.287 35.2316ZM89.8634 34.4985C89.8498 33.6431 89.5443 32.9574 88.9469 32.4415C88.3495 31.9255 87.6096 31.6676 86.727 31.6676C85.926 31.6676 85.2403 31.9255 84.6701 32.4415C84.0998 32.9438 83.7604 33.6295 83.6517 34.4985H89.8634ZM99.867 41.3007C98.9844 41.3007 98.1902 41.1446 97.4841 40.8323C96.7917 40.5064 96.2418 40.072 95.8345 39.5289C95.4272 38.9722 95.2099 38.3544 95.1828 37.6756H97.586C97.6267 38.1508 97.8507 38.5513 98.258 38.8772C98.6789 39.1894 99.2017 39.3456 99.8262 39.3456C100.478 39.3456 100.98 39.2234 101.333 38.979C101.7 38.721 101.883 38.3952 101.883 38.0014C101.883 37.5805 101.68 37.2682 101.272 37.0646C100.878 36.8609 100.247 36.6369 99.3782 36.3925C98.5364 36.1617 97.8507 35.9377 97.3212 35.7204C96.7917 35.5032 96.3301 35.1705 95.9363 34.7225C95.5561 34.2744 95.3661 33.6838 95.3661 32.9506C95.3661 32.3532 95.5426 31.8101 95.8956 31.3214C96.2486 30.819 96.7509 30.4252 97.4027 30.1401C98.068 29.855 98.8283 29.7124 99.6837 29.7124C100.96 29.7124 101.985 30.0383 102.759 30.69C103.546 31.3281 103.967 32.2039 104.022 33.3172H101.7C101.659 32.8149 101.456 32.4143 101.089 32.1156C100.722 31.8169 100.227 31.6676 99.6022 31.6676C98.9912 31.6676 98.5228 31.783 98.1969 32.0138C97.8711 32.2446 97.7082 32.5501 97.7082 32.9303C97.7082 33.229 97.8168 33.4802 98.034 33.6838C98.2512 33.8875 98.516 34.0504 98.8283 34.1726C99.1406 34.2812 99.6022 34.4238 100.213 34.6003C101.028 34.8175 101.693 35.0416 102.209 35.2724C102.739 35.4896 103.193 35.8155 103.574 36.2499C103.954 36.6844 104.151 37.2615 104.164 37.9811C104.164 38.6192 103.988 39.1894 103.635 39.6918C103.282 40.1942 102.779 40.5879 102.128 40.873C101.489 41.1582 100.736 41.3007 99.867 41.3007ZM111.968 41.3007C111.086 41.3007 110.291 41.1446 109.585 40.8323C108.893 40.5064 108.343 40.072 107.936 39.5289C107.528 38.9722 107.311 38.3544 107.284 37.6756H109.687C109.728 38.1508 109.952 38.5513 110.359 38.8772C110.78 39.1894 111.303 39.3456 111.927 39.3456C112.579 39.3456 113.081 39.2234 113.434 38.979C113.801 38.721 113.984 38.3952 113.984 38.0014C113.984 37.5805 113.781 37.2682 113.373 37.0646C112.98 36.8609 112.348 36.6369 111.479 36.3925C110.637 36.1617 109.952 35.9377 109.422 35.7204C108.893 35.5032 108.431 35.1705 108.037 34.7225C107.657 34.2744 107.467 33.6838 107.467 32.9506C107.467 32.3532 107.644 31.8101 107.997 31.3214C108.35 30.819 108.852 30.4252 109.504 30.1401C110.169 29.855 110.929 29.7124 111.785 29.7124C113.061 29.7124 114.086 30.0383 114.86 30.69C115.648 31.3281 116.068 32.2039 116.123 33.3172H113.801C113.76 32.8149 113.557 32.4143 113.19 32.1156C112.823 31.8169 112.328 31.6676 111.703 31.6676C111.092 31.6676 110.624 31.783 110.298 32.0138C109.972 32.2446 109.809 32.5501 109.809 32.9303C109.809 33.229 109.918 33.4802 110.135 33.6838C110.352 33.8875 110.617 34.0504 110.929 34.1726C111.242 34.2812 111.703 34.4238 112.314 34.6003C113.129 34.8175 113.794 35.0416 114.31 35.2724C114.84 35.4896 115.295 35.8155 115.675 36.2499C116.055 36.6844 116.252 37.2615 116.265 37.9811C116.265 38.6192 116.089 39.1894 115.736 39.6918C115.383 40.1942 114.88 40.5879 114.229 40.873C113.591 41.1582 112.837 41.3007 111.968 41.3007Z" fill="white"/>
<path d="M16.8901 16.0783L21.1967 13.1895V41.6533H16.8901V16.0783Z" fill="white" fill-opacity="0.7"/>
<path fill-rule="evenodd" clip-rule="evenodd" d="M4.25963 19.3537L4.25962 41.65L-7.74536e-06 41.65L-2.85998e-06 17.5934L0.0652648 17.5934C0.0700728 17.5487 0.0948265 17.5063 0.138079 17.4773L21.0236 3.51026L21.0236 7.98241L4.25963 19.3537Z" fill="white"/>
<path d="M12.7505 41.6523L8.43776 41.6523L8.43776 21.6425L12.7505 18.7086L12.7505 41.6523Z" fill="white"/>
</svg>
